<?xml version="1.0" encoding="UTF-8"?>
<svg id="_x32_" xmlns="http://www.w3.org/2000/svg" version="1.1" viewBox="0 0 800 800">
  <!-- Generator: Adobe Illustrator 29.4.0, SVG Export Plug-In . SVG Version: 2.1.0 Build 152)  -->
  <path d="M68.6,447.5l48.5,79.1.3.5.3.5c21.1,32.6,60.2,48.1,107.2,42.5,28.9-3.4,59.2-14.4,87.6-31.9l.5-.3.5-.3,34.2-22.2,48,152.4c8.1,30.7,36.5,51.3,68.5,49.1l3.2-.3c30.9-3.7,55.4-28.8,58.1-59.2l28.8-276,100.9-65.5c99.3-64.3,133.4-121.9,101.5-171.2-10.7-16.5-37.9-43-100.1-35.6-42,5-92.8,24.6-135.8,52.4l-101.7,65.7-2.3-.7-151.7-46.2-3.2-1-3.3-.5c-5.3-.8-10.7-.8-16-.2-21.6,2.6-40.5,16.5-49.3,36.5-10.7,24.3-4.5,52.8,14.9,70.5l46.1,48-32.8,21.1c-1.5,1-3.2,1.6-4.9,1.8l-3.6-.2h-.7c0-.1-.7-.2-.7-.2l-73.2-12.1c-6.7-1.2-13.5-1.4-20.3-.6-19.6,2.3-37.2,13-48.3,29.3-15.2,22.5-15.7,51.7-1.2,74.5ZM106,397.5c4-5.9,10.3-9.7,17.2-10.5,2.5-.3,5-.2,7.5.3l73.7,12.1c5.7,1.1,11.5,1.3,17.2.7,8.3-1,16.4-3.9,23.6-8.5l77.3-49.9-84.1-87.7c-6.3-5.1-8.4-13.8-5.1-21.2,2.6-5.9,8.2-9.9,14.4-10.6,1.5-.2,3.1-.2,4.7,0l151.7,46.2-50.5,31.6,20.5,7.4,51.7-32.4,118.8-76.7c27.2-17.6,58.1-31.5,86.7-39.5,3.3,4.8,5.4,8.6,5.4,8.6,3.3,7,2.9,24.1-15.6,33.7l17.9,27.3s55-30.1,26.6-76.1c25.2-2.3,45.4,2.2,54.5,16.3,22.2,34.2-54.3,88.6-88.5,110.7l-118.5,76.8-31,296.8c-1,10.6-9.2,19-19.7,20.3h-1.1c-11,.8-20.9-6.5-23.3-17.3l-57.6-182.9.2-.2-8.3-25.4-6.1-18.8-15,12.8,5.3,16.2-66.7,43.2c-23.2,14.2-47.7,23.1-69.9,25.7-28.4,3.4-52.9-3.6-65.3-22.8l-48.7-79.5c-5.3-8.1-5.2-18.7.3-26.7Z"/>
  <path d="M566.2,255.3c1.2,10,10.2,17.1,20.2,16,10-1.2,17.1-10.2,16-20.2-1.2-10-10.3-17.1-20.2-16-10,1.2-17.1,10.2-16,20.2Z"/>
  <path d="M500,296.2c1.2,10,10.3,17.1,20.2,16,10-1.2,17.1-10.2,16-20.2-1.2-10-10.2-17.1-20.2-16-10,1.2-17.1,10.2-16,20.2Z"/>
  <path d="M433.9,337.1c1.2,10,10.2,17.1,20.2,16s17.1-10.2,16-20.2c-1.2-10-10.3-17.1-20.2-16-10,1.2-17.1,10.2-16,20.2Z"/>
  <path d="M367.7,377.9c1.2,10,10.3,17.1,20.2,16,10-1.2,17.1-10.2,16-20.2-1.2-10-10.2-17.1-20.2-16-10,1.2-17.1,10.2-16,20.2Z"/>
</svg>